<?xml version="1.0" encoding="UTF-8"?>
<svg version="1.1" xmlns="http://www.w3.org/2000/svg" width="223" height="100">
<path d="M0 0 C2.09294386 4.18588772 1.42417949 9.4415641 1 14 C-2.43895855 21.27472002 -8.59295568 25.30652934 -16 28 C-20.58001686 29.29179963 -23.91608324 29 -29 29 C-29 38.24 -29 47.48 -29 57 C-30.65 57 -32.3 57 -34 57 C-34.02465288 52.31860746 -34.04283739 47.63725241 -34.05493164 42.95581055 C-34.05997157 41.36205386 -34.0668035 39.76830181 -34.07543945 38.17456055 C-34.08751999 35.88849747 -34.09323155 33.60249533 -34.09765625 31.31640625 C-34.10281754 30.59973282 -34.10797882 29.88305939 -34.11329651 29.14466858 C-34.11349263 27.42936328 -34.06192007 25.71418734 -34 24 C-33 23 -33 23 -31.25 22.97265625 C-30.13625 23.01712891 -30.13625 23.01712891 -29 23.0625 C-21.11005056 23.12511865 -14.49666909 21.54766837 -8 17 C-5.49120953 14.00563718 -5.03327927 12.27574248 -4.5625 8.375 C-4.63634159 4.98953969 -4.63634159 4.98953969 -6.7578125 3.36328125 C-14.6387255 -1.42842369 -25.13277578 -0.21281338 -34 0 C-34 -1.65 -34 -3.3 -34 -5 C-22.17961779 -6.52521061 -9.84565889 -7.87652711 0 0 Z " fill="#FFFFFF" transform="translate(40,37)"/>
<path d="M0 0 C1.65 0 3.3 0 5 0 C5 9.57 5 19.14 5 29 C8.63 29 12.26 29 16 29 C23.42701947 30.70222341 29.4382416 34.41353824 33.875 40.625 C35.4893773 45.4681319 35.68559213 49.94664678 35 55 C33.12058148 58.54198106 31.92760558 59.62866344 28.22998047 61.10888672 C24.96044602 62.01091247 22.32599303 62.23016488 18.9453125 62.1953125 C17.83671875 62.18886719 16.728125 62.18242188 15.5859375 62.17578125 C14.44382813 62.15902344 13.30171875 62.14226562 12.125 62.125 C10.9596875 62.11597656 9.794375 62.10695312 8.59375 62.09765625 C5.72895423 62.07417432 2.86458465 62.04133141 0 62 C0.33 60.35 0.66 58.7 1 57 C1.63502441 56.98018066 2.27004883 56.96036133 2.92431641 56.93994141 C5.82493326 56.84418878 8.72487905 56.73471454 11.625 56.625 C12.62402344 56.5940625 13.62304688 56.563125 14.65234375 56.53125 C19.77732101 56.32760852 24.20268917 56.01388817 29 54 C29.310487 49.49793855 29.40551164 46.87860856 27.5 42.75 C20.07613893 34.58375283 10.68030316 34.7628788 0 34 C0 22.78 0 11.56 0 0 Z " fill="#FFFFFF" transform="translate(164,3)"/>
<path d="M0 0 C0 10.56 0 21.12 0 32 C-21.6 37.4 -21.6 37.4 -31 32 C-33.5242483 29.98060136 -33.94833532 29.15499404 -35 26 C-35.43733138 20.42402491 -34.83368406 15.82389694 -32 11 C-25.7397173 3.7898813 -18.67375591 1.01013526 -9.37109375 0.11328125 C-6.25072676 -0.03579724 -3.12392614 0 0 0 Z M-25.70703125 12.45703125 C-28.66617688 15.68906639 -30.09314754 18.62206545 -30 23 C-28.28271979 25.90616651 -26.74074771 27.54247936 -23.875 29.3125 C-17.05163986 30.94417308 -11.63580189 30.21193396 -5 28 C-5 20.74 -5 13.48 -5 6 C-13.9356111 6 -18.98689965 6.72108368 -25.70703125 12.45703125 Z " fill="#FFFFFF" transform="translate(154,31)"/>
<path d="M0 0 C0 10.56 0 21.12 0 32 C-21.83647799 37.4591195 -21.83647799 37.4591195 -31 32 C-34.03075316 29.27232216 -34.70931905 26.24664501 -35.0546875 22.21484375 C-34.93449157 17.34690842 -33.66691529 13.03183458 -30.5546875 9.23828125 C-21.63000119 0.99851272 -11.65593534 0 0 0 Z M-24.96875 11.54296875 C-27.85229518 14.51492451 -29.38422511 17.01163811 -29.6875 21.1875 C-29.34500755 25.08269127 -29.34500755 25.08269127 -26.6875 27.4375 C-23.05116608 29.55164763 -20.32782539 30.15570027 -16.1875 30.1875 C-15.35605469 30.20167969 -14.52460937 30.21585938 -13.66796875 30.23046875 C-10.37323235 30.0504195 -10.37323235 30.0504195 -5 28 C-5 20.74 -5 13.48 -5 6 C-13.02683761 6 -18.60500104 6.55550677 -24.96875 11.54296875 Z " fill="#FFFFFF" transform="translate(81,31)"/>
<path d="M0 0 C1.65 0 3.3 0 5 0 C5.01030746 0.6882486 5.02061493 1.37649719 5.03123474 2.08560181 C5.13950583 9.25589095 5.25408683 16.42605966 5.37231445 23.59619141 C5.41610221 26.27129929 5.45727677 28.94641119 5.49731445 31.62158203 C5.55517809 35.46915654 5.61882644 39.31659877 5.68359375 43.1640625 C5.70030624 44.35802643 5.71701874 45.55199036 5.73423767 46.78213501 C5.75418289 47.90284393 5.77412811 49.02355286 5.79467773 50.17822266 C5.81022202 51.15973297 5.8257663 52.14124329 5.84178162 53.15249634 C6.00890239 56.160219 6.45293206 59.03972965 7 62 C4.625 62.1875 4.625 62.1875 2 62 C-0.29790514 58.5531423 -0.24434461 57.29881048 -0.22705078 53.2434082 C-0.22689972 52.06241043 -0.22674866 50.88141266 -0.22659302 49.66462708 C-0.21627045 48.38955795 -0.20594788 47.11448883 -0.1953125 45.80078125 C-0.1924826 44.49545944 -0.18965271 43.19013763 -0.18673706 41.84526062 C-0.17910747 38.37804485 -0.15946493 34.91099712 -0.1373291 31.44384766 C-0.11685605 27.90464552 -0.10773223 24.36541618 -0.09765625 20.82617188 C-0.0762183 13.88404563 -0.04209056 6.94203089 0 0 Z " fill="#FFFFFF" transform="translate(91,3)"/>
<path d="M0 0 C1.65 0 3.3 0 5 0 C5.01030746 0.71774597 5.02061493 1.43549194 5.03123474 2.17498779 C5.12926383 8.94324538 5.23178596 15.71142165 5.33933926 22.47953415 C5.39447368 25.95898084 5.44787825 29.43843607 5.49731445 32.91796875 C5.55424124 36.91936197 5.61871887 40.92060269 5.68359375 44.921875 C5.70030624 46.16990906 5.71701874 47.41794312 5.73423767 48.70379639 C5.75418289 49.86469788 5.77412811 51.02559937 5.79467773 52.22167969 C5.81022202 53.24316101 5.8257663 54.26464233 5.84178162 55.31707764 C5.98195428 57.69399728 6.32393052 59.72566899 7 62 C5.02 62 3.04 62 1 62 C-0.34049527 59.31900947 -0.1198052 57.26688794 -0.11352539 54.26513672 C-0.11344986 53.06404266 -0.11337433 51.86294861 -0.11329651 50.62545776 C-0.10813522 49.32335358 -0.10297394 48.02124939 -0.09765625 46.6796875 C-0.09579138 45.33733167 -0.0943678 43.99497516 -0.09336853 42.65261841 C-0.08954878 39.11804325 -0.07972312 35.58350913 -0.06866455 32.0489502 C-0.05843878 28.44279536 -0.05386841 24.8366339 -0.04882812 21.23046875 C-0.03810038 14.15362904 -0.02103045 7.0768172 0 0 Z " fill="#FFFFFF" transform="translate(107,3)"/>
<path d="M0 0 C2 2 2 2 2 5 C-0.31 5 -2.62 5 -5 5 C-5.33 5.66 -5.66 6.32 -6 7 C-3.36 7 -0.72 7 2 7 C2 9.97 2 12.94 2 16 C-2.3362555 18.16812775 -3.50981038 18.43303924 -8 17 C-10.26550504 14.66141415 -10.98907424 13.03794722 -11.0234375 9.7734375 C-10.66743538 5.72556157 -10.29984796 3.44977193 -8 0 C-4.67679974 -1.10773342 -3.30835256 -0.93312508 0 0 Z M-7 7 C-6 10 -6 10 -6 10 Z M-6 11 C-6 11.66 -6 12.32 -6 13 C-5.01 13.33 -4.02 13.66 -3 14 C-2.67 13.01 -2.34 12.02 -2 11 C-3.32 11 -4.64 11 -6 11 Z " fill="#FFFFFF" transform="translate(120,74)"/>
<path d="M0 0 C1.60875 -0.04125 3.2175 -0.0825 4.875 -0.125 C5.77992188 -0.14820312 6.68484375 -0.17140625 7.6171875 -0.1953125 C10 0 10 0 12 2 C12.21676408 5.39597063 12.08073852 7.75778445 11 11 C11.99 12.485 11.99 12.485 13 14 C13 14.99 13 15.98 13 17 C11.68 17.33 10.36 17.66 9 18 C6 13.25 6 13.25 6 11 C5.34 11 4.68 11 4 11 C4 12.98 4 14.96 4 17 C2.68 17 1.36 17 0 17 C0 11.39 0 5.78 0 0 Z M4 3 C4 4.32 4 5.64 4 7 C5.32 6.67 6.64 6.34 8 6 C8 5.34 8 4.68 8 4 C6.68 3.67 5.36 3.34 4 3 Z " fill="#FFFFFF" transform="translate(128,74)"/>
<path d="M0 0 C2.23465229 3.35197843 2.27108649 4.57791246 2.25 8.5 C2.25515625 9.4590625 2.2603125 10.418125 2.265625 11.40625 C2 14 2 14 0 17 C-2.8125 18 -2.8125 18 -6 18 C-8.89799298 16.04700473 -10.6631153 14.5795443 -11.4140625 11.05859375 C-11.59890186 6.63085101 -10.87364207 3.5122292 -8 0 C-4.67212881 -1.1092904 -3.3006216 -1.01557588 0 0 Z M-5 3 C-7.56687367 6.8503105 -6.83288724 8.58569763 -6 13 C-5.01 13 -4.02 13 -3 13 C-1.61091361 11.82889816 -1.61091361 11.82889816 -1.75 8.5625 C-1.8325 7.386875 -1.915 6.21125 -2 5 C-2.99 4.34 -3.98 3.68 -5 3 Z " fill="#FFFFFF" transform="translate(102,74)"/>
<path d="M0 0 C2.23465229 3.35197843 2.27108649 4.57791246 2.25 8.5 C2.25515625 9.4590625 2.2603125 10.418125 2.265625 11.40625 C2 14 2 14 0 17 C-2.8125 18 -2.8125 18 -6 18 C-8.89799298 16.04700473 -10.6631153 14.5795443 -11.4140625 11.05859375 C-11.59890186 6.63085101 -10.87364207 3.5122292 -8 0 C-4.67212881 -1.1092904 -3.3006216 -1.01557588 0 0 Z M-5 3 C-7.56687367 6.8503105 -6.83288724 8.58569763 -6 13 C-5.01 13 -4.02 13 -3 13 C-1.61091361 11.82889816 -1.61091361 11.82889816 -1.75 8.5625 C-1.8325 7.386875 -1.915 6.21125 -2 5 C-2.99 4.34 -3.98 3.68 -5 3 Z " fill="#FFFFFF" transform="translate(66,74)"/>
<path d="M0 0 C1.32 0 2.64 0 4 0 C4 1.98 4 3.96 4 6 C5.32 6 6.64 6 8 6 C8 4.02 8 2.04 8 0 C9.32 0 10.64 0 12 0 C12 5.61 12 11.22 12 17 C10.68 17 9.36 17 8 17 C8 14.69 8 12.38 8 10 C6.68 10 5.36 10 4 10 C4 12.31 4 14.62 4 17 C2.68 17 1.36 17 0 17 C0 11.39 0 5.78 0 0 Z " fill="#FFFFFF" transform="translate(182,74)"/>
<path d="M0 0 C1.65 0 3.3 0 5 0 C5.83919398 2.26882087 6.67151724 4.53977027 7.5 6.8125 C7.73847656 7.45509766 7.97695312 8.09769531 8.22265625 8.75976562 C9.27068746 11.64933739 10 13.90076061 10 17 C8.68 17.33 7.36 17.66 6 18 C5.67 16.35 5.34 14.7 5 13 C3.05000871 13.19471111 3.05000871 13.19471111 1 14 C-0.28436734 15.9837767 -0.28436734 15.9837767 -1 18 C-2.32 17.34 -3.64 16.68 -5 16 C-3.35 10.72 -1.7 5.44 0 0 Z " fill="#FFFFFF" transform="translate(149,74)"/>
<path d="M0 0 C1.32 0 2.64 0 4 0 C4 1.98 4 3.96 4 6 C5.32 6 6.64 6 8 6 C8 4.02 8 2.04 8 0 C9.32 0 10.64 0 12 0 C12 5.61 12 11.22 12 17 C10.68 17 9.36 17 8 17 C8 14.69 8 12.38 8 10 C6.68 10 5.36 10 4 10 C4 12.31 4 14.62 4 17 C2.68 17 1.36 17 0 17 C0 11.39 0 5.78 0 0 Z " fill="#FFFFFF" transform="translate(38,74)"/>
<path d="M0 0 C8.75 -0.125 8.75 -0.125 11 1 C11.29296875 7.0546875 11.29296875 7.0546875 11 9 C8 11 8 11 4 11 C4 12.98 4 14.96 4 17 C2.68 17 1.36 17 0 17 C0 11.39 0 5.78 0 0 Z M4 3 C4 4.32 4 5.64 4 7 C4.99 7 5.98 7 7 7 C7 6.01 7 5.02 7 4 C6.01 3.67 5.02 3.34 4 3 Z " fill="#FFFFFF" transform="translate(165,74)"/>
<path d="M0 0 C8.75 -0.125 8.75 -0.125 11 1 C11.29296875 7.0546875 11.29296875 7.0546875 11 9 C8 11 8 11 4 11 C4 12.98 4 14.96 4 17 C2.68 17 1.36 17 0 17 C0 11.39 0 5.78 0 0 Z M4 3 C4 4.32 4 5.64 4 7 C4.99 7 5.98 7 7 7 C7 6.01 7 5.02 7 4 C6.01 3.67 5.02 3.34 4 3 Z " fill="#FFFFFF" transform="translate(21,74)"/>
<path d="M0 0 C1.65 1.65 3.3 3.3 5 5 C6.65 3.35 8.3 1.7 10 0 C10.66 0.33 11.32 0.66 12 1 C11.50074534 3.59612425 10.75826178 5.45325917 9.5 7.8125 C7.87568599 11.26416726 7.37765918 14.22340818 7 18 C5.68 18 4.36 18 3 18 C2.731875 16.783125 2.46375 15.56625 2.1875 14.3125 C1.31391525 10.74902838 -0.08489896 8.13380171 -2 5 C-2 3.68 -2 2.36 -2 1 C-1.34 0.67 -0.68 0.34 0 0 Z " fill="#FFFFFF" transform="translate(201,73)"/>
<path d="M0 0 C3.96 0 7.92 0 12 0 C12 0.99 12 1.98 12 3 C10.68 3 9.36 3 8 3 C8 7.62 8 12.24 8 17 C6.68 17 5.36 17 4 17 C4 12.38 4 7.76 4 3 C2.35 3 0.7 3 -1 3 C-0.67 2.01 -0.34 1.02 0 0 Z " fill="#FFFFFF" transform="translate(74,74)"/>
</svg>
